<?xml version="1.0" encoding="UTF-8"?>
<svg viewBox="0 0 25 26" version="1.1" xmlns="http://www.w3.org/2000/svg" xmlns:xlink="http://www.w3.org/1999/xlink">
    <title>Combined Shape</title>
    <g id="Page-1" stroke="none" stroke-width="1" fill="none" fill-rule="evenodd">
        <g id="!Alerts-1920x1024-" transform="translate(-55.000000, -75.000000)" fill="#FFFFFF" fill-rule="nonzero">
            <g id="c-add" transform="translate(68.000000, 88.000000) rotate(-45.000000) translate(-68.000000, -88.000000) translate(55.000000, 75.000000)">
                <path d="M12.7272727,0.318181818 C19.5806244,0.318181818 25.1363636,5.87392106 25.1363636,12.7272727 C25.1363636,19.5806244 19.5806244,25.1363636 12.7272727,25.1363636 C5.87392106,25.1363636 0.318181818,19.5806244 0.318181818,12.7272727 C0.318181818,5.87392106 5.87392106,0.318181818 12.7272727,0.318181818 Z M12.7272727,2.22727273 C6.92828285,2.22727273 2.22727273,6.92828285 2.22727273,12.7272727 C2.22727273,18.5262626 6.92828285,23.2272727 12.7272727,23.2272727 C18.5262626,23.2272727 23.2272727,18.5262626 23.2272727,12.7272727 C23.2272727,6.92828285 18.5262626,2.22727273 12.7272727,2.22727273 Z M12.7272727,6.5661157 C13.2544536,6.5661157 13.6818182,6.99348026 13.6818182,7.52066116 L13.6811818,11.7721818 L17.9338843,11.7727273 C18.4610652,11.7727273 18.8884298,12.2000918 18.8884298,12.7272727 C18.8884298,13.2544536 18.4610652,13.6818182 17.9338843,13.6818182 L13.6811818,13.6811818 L13.6818182,17.9338843 C13.6818182,18.4610652 13.2544536,18.8884298 12.7272727,18.8884298 C12.2000918,18.8884298 11.7727273,18.4610652 11.7727273,17.9338843 L11.7721818,13.6811818 L7.52066116,13.6818182 C6.99348026,13.6818182 6.5661157,13.2544536 6.5661157,12.7272727 C6.5661157,12.2000918 6.99348026,11.7727273 7.52066116,11.7727273 L11.7721818,11.7721818 L11.7727273,7.52066116 C11.7727273,6.99348026 12.2000918,6.5661157 12.7272727,6.5661157 Z" id="Combined-Shape"></path>
            </g>
        </g>
    </g>
</svg>
