<?xml version="1.0" encoding="UTF-8"?>
<svg viewBox="0 0 27 18" version="1.1" xmlns="http://www.w3.org/2000/svg" xmlns:xlink="http://www.w3.org/1999/xlink">
    <title>eye-regular</title>
    <defs>
        <filter id="filter-1">
            <feColorMatrix in="SourceGraphic" type="matrix" values="0 0 0 0 1.000000 0 0 0 0 1.000000 0 0 0 0 1.000000 0 0 0 1.000000 0"></feColorMatrix>
        </filter>
    </defs>
    <g id="Page-1" stroke="none" stroke-width="1" fill="none" fill-rule="evenodd">
        <g id="!!Cameras1920x1024-" transform="translate(-174.000000, -76.000000)">
            <g filter="url(#filter-1)" id="eye-regular">
                <g transform="translate(174.000000, 76.000000)">
                    <path d="M13.5,3.74997595 C13.0031847,3.75776525 12.5100464,3.83669263 12.035625,3.984375 C12.2550753,4.37030465 12.3719199,4.80605108 12.375,5.25 C12.375,6.69974747 11.1997475,7.875 9.75,7.875 C9.30605108,7.8719199 8.87030465,7.7550753 8.484375,7.535625 C7.8599318,9.70128005 8.6913217,12.0235415 10.5483597,13.3008046 C12.4053977,14.5780677 14.8713976,14.5237374 16.6703803,13.1659258 C18.469363,11.8081142 19.1976689,9.45148993 18.4784516,7.31543806 C17.7592343,5.17938619 15.7538733,3.7431986 13.5,3.74997595 L13.5,3.74997595 Z M26.836875,8.315625 C24.2948437,3.35578125 19.2623437,0 13.5,0 C7.73765625,0 2.70375,3.358125 0.163125,8.31609375 C-0.0543408223,8.74626554 -0.0543408223,9.25420321 0.163125,9.684375 C2.70515625,14.6442188 7.73765625,18 13.5,18 C19.2623437,18 24.29625,14.641875 26.836875,9.68390625 C27.0543408,9.25373446 27.0543408,8.74579679 26.836875,8.315625 Z M13.5,15.75 C8.87578125,15.75 4.63640625,13.171875 2.34703125,9 C4.63640625,4.828125 8.8753125,2.25 13.5,2.25 C18.1246875,2.25 22.3635938,4.828125 24.6529688,9 C22.3640625,13.171875 18.1246875,15.75 13.5,15.75 Z" id="Shape" fill="#000000" fill-rule="nonzero"></path>
                </g>
            </g>
        </g>
    </g>
</svg>
